<svg xmlns="http://www.w3.org/2000/svg" width="1998" height="1998" viewBox="0 0 1998 1998" version="1.1">
	<path d="M 50.916 1.522 C 28.804 6.891, 11.322 22.874, 3.179 45.165 L 0.500 52.500 0.247 996.333 C 0.021 1841.812, 0.155 1940.860, 1.529 1946.833 C 7.021 1970.691, 27.148 1990.877, 51 1996.451 C 56.790 1997.804, 160.398 1997.970, 999 1997.970 C 1837.602 1997.970, 1941.210 1997.804, 1947 1996.451 C 1965.353 1992.162, 1982.644 1978.543, 1990.740 1962 C 1993.028 1957.325, 1995.402 1951.250, 1996.016 1948.500 C 1996.630 1945.750, 1997.553 1942.719, 1998.066 1941.764 C 1999.278 1939.510, 1999.336 54.674, 1998.125 55.423 C 1997.644 55.720, 1996.957 54.136, 1996.600 51.901 C 1995.654 45.982, 1991.581 36.531, 1986.843 29.259 C 1978.333 16.197, 1962.469 5.163, 1947 1.549 C 1941.209 0.195, 1837.709 0.037, 998.500 0.098 C 209.309 0.156, 55.594 0.387, 50.916 1.522 M 0.498 999 C 0.498 1517.925, 0.611 1730.212, 0.750 1470.750 C 0.889 1211.287, 0.889 786.712, 0.750 527.250 C 0.611 267.787, 0.498 480.075, 0.498 999 M 241 999.004 L 241 1392.088 364.750 1391.730 C 475.568 1391.410, 489.702 1391.192, 500 1389.649 C 551.568 1381.923, 590.187 1363.894, 623.179 1332.143 C 660.397 1296.325, 680.470 1256.005, 688.220 1201.500 C 690.147 1187.950, 690.083 808.394, 688.152 795.500 C 681.190 749.015, 664.839 711.481, 638.491 681.500 C 602.190 640.194, 561.474 618.052, 504 608.363 C 494.419 606.748, 482.445 606.564, 367.250 606.257 L 241 605.921 241 999.004 M 854.306 607.485 C 832.528 611.436, 816.752 620.077, 800.954 636.711 C 786.815 651.597, 778.540 669.299, 776.042 690 C 775.197 697.001, 774.975 779.862, 775.198 1005 L 775.500 1310.500 778.132 1320.011 C 782.936 1337.375, 789.387 1349.046, 801 1361.388 C 813.975 1375.177, 828.141 1383.679, 846.628 1388.774 L 856.500 1391.495 1012.250 1391.772 L 1168 1392.048 1168 1322.028 L 1168 1252.008 1041.750 1251.754 L 915.500 1251.500 915.245 1160.250 L 914.989 1069 992.495 1069 L 1070 1069 1070 999.006 L 1070 929.012 992.750 928.756 L 915.500 928.500 915.500 837.500 L 915.500 746.500 1041.750 746.246 L 1168 745.992 1168 675.996 L 1168 606 1014.750 606.090 C 893.363 606.162, 860.004 606.452, 854.306 607.485 M 1252.502 608.007 C 1252.853 609.111, 1294.009 764.068, 1343.962 952.355 C 1431.964 1284.067, 1434.953 1295.050, 1440.214 1306.098 C 1462.143 1352.147, 1490.770 1380.571, 1523.802 1389.095 C 1545.221 1394.622, 1572.307 1391.271, 1590.979 1380.784 C 1614.203 1367.740, 1634.885 1343.412, 1651.578 1309.500 L 1658.961 1294.500 1749.981 951.238 C 1800.041 762.444, 1841 607.531, 1841 606.988 C 1841 606.346, 1814.078 606, 1764.132 606 L 1687.264 606 1685.689 611.750 C 1684.823 614.913, 1653.440 735.625, 1615.949 880 C 1578.459 1024.375, 1547.489 1143.042, 1547.127 1143.705 C 1546.766 1144.368, 1514.977 1023.659, 1476.485 875.463 L 1406.500 606.016 1329.183 606.008 C 1252.229 606, 1251.868 606.009, 1252.502 608.007 M 381.462 747.250 C 381.201 747.938, 381.103 861.675, 381.244 1000 L 381.500 1251.500 423 1251.796 C 466.770 1252.109, 478.188 1251.444, 489.037 1247.950 C 505.100 1242.778, 525.106 1229.882, 533.486 1219.298 C 539.532 1211.662, 544.489 1201.475, 547.255 1191 L 549.500 1182.500 549.500 999 L 549.500 815.500 547.260 807 C 546.028 802.325, 543.146 794.690, 540.855 790.034 C 531.184 770.379, 504.291 752.020, 478.619 747.547 C 466.805 745.489, 382.230 745.230, 381.462 747.250" stroke="none" fill="black" fill-rule="evenodd"/>
</svg>